<svg xmlns="http://www.w3.org/2000/svg" width="58" height="71" viewBox="0 0 58 71">
  <g id="그룹_27" data-name="그룹 27" transform="translate(-331.729 -120.633)">
    <path id="패스_7" data-name="패스 7" d="M379.824,182.691v4.22a3.972,3.972,0,0,1-3.662,4.222H339.551c-4.043,0-7.322-3.78-7.322-8.442V129.575c0-4.662,3.279-8.442,7.322-8.442h36.611a3.973,3.973,0,0,1,3.662,4.222Z" transform="translate(0 0)" fill="#d3d7c8" stroke="#000" stroke-miterlimit="10" stroke-width="1"/>
    <path id="패스_8" data-name="패스 8" d="M365.093,129.574v57.335a4.48,4.48,0,0,1-4.7,4.222h-1.275a7.739,7.739,0,0,0,1.275-4.222V125.354a7.732,7.732,0,0,0-1.275-4.22h1.275a4.478,4.478,0,0,1,4.7,4.22Z" transform="translate(24.136 0.001)" fill="#d3d7c8" stroke="#000" stroke-miterlimit="10" stroke-width="1"/>
    <path id="패스_9" data-name="패스 9" d="M361.606,125.05" transform="translate(27.623 5.49)" fill="#d3d7c8" stroke="#000" stroke-miterlimit="10" stroke-width="1"/>
    <path id="패스_10" data-name="패스 10" d="M368.462,151.573s-1.575-1.749-3.318-.541c-1.3.9-3.636,2.9-4.2,3.382a47.262,47.262,0,0,1-6.214-3.684,30.855,30.855,0,0,1-6.909-7.643l-.9-1.563c.314-.31,2.7-2.679,3.738-3.964,1.3-1.613-.585-3.07-.585-3.07s-5.311-4.911-6.521-5.888a2.783,2.783,0,0,0-2.6-.434c-2.541,1.522-5.179,2.845-5.334,9.2-.007,5.952,4.878,12.087,10.157,16.84,5.29,5.365,12.553,10.745,19.573,10.739,6.869-.142,8.3-2.582,9.939-4.935a2.258,2.258,0,0,0-.467-2.408c-1.054-1.121-6.365-6.031-6.365-6.031Zm0,0" transform="translate(0.485 10.652)" fill="#d3d7c8" stroke="#000" stroke-miterlimit="10" stroke-width="1"/>
  </g>
</svg>
