<svg xmlns="http://www.w3.org/2000/svg" xmlns:xlink="http://www.w3.org/1999/xlink" width="70" height="70" viewBox="0 0 70 70">
  <defs>
    <clipPath id="clip-path">
      <rect id="사각형_13" data-name="사각형 13" width="70" height="70" fill="#d3d7c8"/>
    </clipPath>
  </defs>
  <g id="그룹_19" data-name="그룹 19" transform="translate(-237.198 -175.936)">
    <g id="그룹_18" data-name="그룹 18" transform="translate(237.198 175.936)">
      <g id="그룹_17" data-name="그룹 17" clip-path="url(#clip-path)">
        <path id="패스_14" data-name="패스 14" d="M268.385,195.13a5.64,5.64,0,1,1-5.641-5.619,5.629,5.629,0,0,1,5.641,5.619Zm0,0" transform="translate(-227.607 -169.475)" fill="#d3d7c8"/>
        <path id="패스_15" data-name="패스 15" d="M272.232,175.889a34.895,34.895,0,1,0,35.035,34.894,34.965,34.965,0,0,0-35.035-34.894Zm-.074,15.976.076,0c.024,0,.047,0,.073,0A10.9,10.9,0,0,1,283.011,202.7c0,7.19-7.714,14.472-10.778,17.082-.206-.176-.433-.372-.676-.587l-.012-.01c-3.393-3-10.092-9.782-10.092-16.484a10.9,10.9,0,0,1,10.7-10.833Zm.227,38.054c-6.461,0-13-1.846-13-5.375,0-2.475,3.221-4.121,7.373-4.882.8.8,1.563,1.513,2.23,2.1-4.522.5-7.181,1.929-7.181,2.778,0,1.043,4.016,2.961,10.58,2.961s10.58-1.917,10.58-2.961c0-.866-2.769-2.327-7.458-2.8.673-.6,1.44-1.314,2.249-2.127,4.276.742,7.631,2.406,7.631,4.931,0,3.529-6.541,5.375-13,5.375Zm0,0" transform="translate(-237.197 -175.958)" fill="#d3d7c8"/>
      </g>
    </g>
  </g>
</svg>
