<svg xmlns="http://www.w3.org/2000/svg" xmlns:xlink="http://www.w3.org/1999/xlink" width="70" height="70" viewBox="0 0 70 70">
  <defs>
    <clipPath id="clip-path">
      <rect id="사각형_14" data-name="사각형 14" width="70" height="70" fill="#d3d7c8"/>
    </clipPath>
  </defs>
  <g id="그룹_22" data-name="그룹 22" transform="translate(-237.326 -359.939)">
    <g id="그룹_21" data-name="그룹 21" transform="translate(237.326 359.939)">
      <g id="그룹_20" data-name="그룹 20" clip-path="url(#clip-path)">
        <path id="패스_16" data-name="패스 16" d="M272.361,359.892A34.9,34.9,0,1,0,307.4,394.787a34.966,34.966,0,0,0-35.035-34.895Zm0,12.257,20.731,12.877H251.628Zm20.99,33.438h0a3.747,3.747,0,0,1-3.755,3.74H255.127a3.748,3.748,0,0,1-3.755-3.74V385.845a3.777,3.777,0,0,1,.059-.638l19.809,12.3c.025.015.05.025.074.038s.055.028.081.041a2.053,2.053,0,0,0,.431.168l.044.01a2.228,2.228,0,0,0,.49.06h0a2.143,2.143,0,0,0,.49-.06l.044-.01a2.1,2.1,0,0,0,.432-.168c.025-.013.053-.026.08-.041s.049-.024.074-.038l19.809-12.3a3.78,3.78,0,0,1,.059.638Zm0,0" transform="translate(-237.327 -359.962)" fill="#d3d7c8"/>
      </g>
    </g>
  </g>
</svg>
